<svg xmlns="http://www.w3.org/2000/svg" viewBox="0 0 100 100">
  <defs>
    <linearGradient id="bgGrad" x1="0%" y1="0%" x2="100%" y2="100%">
      <stop offset="0%" style="stop-color:#4F46E5;stop-opacity:1" />
      <stop offset="100%" style="stop-color:#7C3AED;stop-opacity:1" />
    </linearGradient>
  </defs>
  
  <!-- Square background filling entire icon -->
  <rect width="100" height="100" fill="url(#bgGrad)" rx="20"/>
  
  <!-- Handwritten style P letter -->
  <path d="M 28 22 Q 30 20 32 22 L 34 75 Q 34 78 31 78 Q 28 78 28 75 L 28 56 L 26 56 Q 24 56 24 53 Q 24 51 26 51 L 28 51 L 28 22 Z" 
        fill="#FFFFFF" 
        stroke="#FFFFFF" 
        stroke-width="1.5" 
        stroke-linecap="round" 
        stroke-linejoin="round"/>
  
  <!-- Handwritten P top curve -->
  <path d="M 28 22 Q 30 20 35 20 L 55 20 Q 68 20 72 28 Q 75 35 72 42 Q 68 50 55 50 L 35 50 Q 30 50 28 48" 
        fill="none" 
        stroke="#FFFFFF" 
        stroke-width="6" 
        stroke-linecap="round" 
        stroke-linejoin="round"/>
  
  <!-- Inner detail for handwritten effect -->
  <path d="M 32 25 L 52 25 Q 62 25 65 30 Q 67 35 65 40 Q 62 45 52 45 L 32 45" 
        fill="#4F46E5" 
        opacity="0.3"/>
</svg>
